<?xml version="1.0" standalone="no"?>
<!DOCTYPE svg PUBLIC "-//W3C//DTD SVG 20010904//EN"
 "http://www.w3.org/TR/2001/REC-SVG-20010904/DTD/svg10.dtd">
<svg version="1.0" xmlns="http://www.w3.org/2000/svg"
 width="600.000000pt" height="600.000000pt" viewBox="0 0 600.000000 600.000000"
 preserveAspectRatio="xMidYMid meet">
<metadata>
Created by potrace 1.11, written by Peter Selinger 2001-2013
</metadata>
<g transform="translate(0.000000,600.000000) scale(0.100000,-0.100000)"
fill="#000000" stroke="none">
<path d="M2818 5825 c-2 -2 -37 -6 -78 -10 -132 -13 -169 -18 -250 -35 -25 -5
-56 -12 -70 -15 -191 -37 -409 -112 -615 -209 -49 -24 -93 -43 -96 -42 -4 1
-15 -6 -25 -14 -11 -8 -30 -21 -43 -28 -106 -60 -165 -95 -171 -102 -3 -3 -25
-18 -50 -35 -45 -30 -155 -111 -176 -130 -7 -5 -29 -23 -50 -40 -20 -16 -47
-40 -59 -52 -13 -12 -26 -19 -29 -16 -3 4 -6 2 -6 -4 0 -6 -28 -37 -61 -69
-34 -33 -74 -72 -88 -88 -14 -16 -35 -38 -46 -50 -21 -22 -104 -122 -142 -172
-52 -68 -93 -124 -93 -128 0 -4 -61 -99 -78 -121 -4 -5 -14 -23 -22 -40 -8
-16 -18 -32 -21 -35 -19 -16 -184 -372 -193 -415 -1 -5 -4 -14 -7 -20 -8 -12
-58 -176 -64 -205 -2 -11 -6 -24 -9 -28 -16 -27 -64 -292 -81 -447 -12 -110
-13 -477 -2 -565 2 -19 7 -60 11 -90 4 -30 14 -91 22 -135 9 -44 17 -91 20
-105 3 -14 7 -33 10 -42 3 -9 6 -25 8 -35 10 -49 63 -219 98 -313 34 -90 163
-365 201 -425 6 -11 29 -46 50 -78 20 -32 37 -63 37 -68 0 -5 3 -9 8 -9 4 0
16 -15 25 -33 10 -19 28 -45 40 -58 12 -13 33 -40 47 -60 92 -133 289 -335
455 -468 50 -40 98 -79 108 -87 9 -8 21 -14 26 -14 5 0 11 -4 13 -9 3 -10 200
-139 226 -148 9 -4 19 -10 22 -13 13 -17 370 -184 415 -195 6 -1 17 -5 25 -8
21 -9 109 -38 129 -43 9 -2 57 -15 106 -29 50 -14 106 -28 125 -31 19 -3 43
-7 52 -10 24 -7 57 -13 108 -20 25 -3 54 -8 65 -10 63 -12 194 -18 375 -18
215 0 297 5 445 29 69 11 89 15 115 21 14 3 34 7 45 9 11 1 40 8 65 15 25 7
50 13 55 14 101 19 464 158 570 218 11 7 38 21 60 33 34 17 87 49 199 118 45
27 176 125 251 186 97 79 135 114 228 210 98 101 97 100 142 156 22 28 42 52
45 55 32 29 190 260 243 355 88 158 225 469 241 545 2 8 6 22 9 30 9 23 27 85
32 106 2 10 11 51 20 89 9 39 19 81 21 95 3 14 9 48 14 75 27 144 35 256 35
475 0 170 -7 307 -19 370 -3 14 -9 57 -15 95 -21 134 -62 299 -110 440 -17 50
-33 97 -35 105 -8 29 -88 206 -129 285 -178 346 -466 701 -736 908 -31 23 -63
49 -72 57 -111 97 -428 279 -644 370 -28 12 -181 66 -230 80 -22 7 -51 17 -65
21 -25 9 -132 35 -180 45 -239 48 -370 61 -612 62 -103 0 -188 -1 -190 -3z"/>
</g>
</svg>
